<svg width="116" height="94" viewBox="0 0 116 94" fill="none" xmlns="http://www.w3.org/2000/svg">
<path d="M36.9299 94.9161C48.7863 94.9161 58.1159 89.9979 64.4513 81.4841C70.7617 73.004 74.0499 61.0325 74.0499 46.9601H72.0499C72.0499 60.7517 68.8237 72.2582 62.8468 80.2901C56.895 88.2884 48.1646 92.9161 36.9299 92.9161V94.9161ZM74.0499 46.9601C74.0499 32.8877 70.7617 20.9162 64.4513 12.4361C58.1159 3.92236 48.7863 -0.995899 36.9299 -0.995899V1.0041C48.1646 1.0041 56.895 5.63185 62.8468 13.6301C68.8237 21.662 72.0499 33.1685 72.0499 46.9601H74.0499ZM36.9299 -0.995899C25.1368 -0.995899 15.8083 3.92333 9.45767 12.4351C3.13132 20.9144 -0.190078 32.8856 -0.190078 46.9601H1.80992C1.80992 33.1706 5.06752 21.6638 11.0607 13.6311C17.0296 5.63087 25.7611 1.0041 36.9299 1.0041V-0.995899ZM-0.190078 46.9601C-0.190078 61.0346 3.13132 73.0058 9.45767 81.4851C15.8083 89.9969 25.1368 94.9161 36.9299 94.9161V92.9161C25.7611 92.9161 17.0296 88.2893 11.0607 80.2891C5.06752 72.2564 1.80992 60.7496 1.80992 46.9601H-0.190078ZM36.9299 75.5011C31.2138 75.5011 26.9577 73.0688 24.0763 68.3675C21.1521 63.5965 19.6119 56.4268 19.6119 46.9601H17.6119C17.6119 56.5854 19.1678 64.1862 22.3711 69.4127C25.6172 74.7089 30.5201 77.5011 36.9299 77.5011V75.5011ZM19.6119 46.9601C19.6119 37.4937 21.1519 30.2902 24.0778 25.4857C26.9616 20.7502 31.2188 18.2901 36.9299 18.2901V16.2901C30.5151 16.2901 25.6133 19.119 22.3696 24.4455C19.1679 29.703 17.6119 37.3345 17.6119 46.9601H19.6119ZM36.9299 18.2901C42.6426 18.2901 46.9334 20.7519 49.849 25.4897C52.8056 30.2941 54.3769 37.4967 54.3769 46.9601H56.3769C56.3769 37.3315 54.7878 29.6991 51.5523 24.4415C48.2759 19.1173 43.3432 16.2901 36.9299 16.2901V18.2901ZM54.3769 46.9601C54.3769 56.4238 52.8055 63.5926 49.8505 68.3636C46.9373 73.0672 42.6476 75.5011 36.9299 75.5011V77.5011C43.3383 77.5011 48.272 74.7105 51.5508 69.4166C54.7879 64.1901 56.3769 56.5884 56.3769 46.9601H54.3769ZM100.185 1.8101V0.810101H100.014L99.8522 0.867205L100.185 1.8101ZM76.4493 10.1951L76.1162 9.2522L75.2274 9.56618L75.4884 10.472L76.4493 10.1951ZM80.8353 25.4171L79.8744 25.694L80.1492 26.6479L81.1052 26.38L80.8353 25.4171ZM97.8633 20.6441H98.8633V19.3253L97.5934 19.6812L97.8633 20.6441ZM97.8633 92.1101H96.8633V93.1101H97.8633V92.1101ZM115.665 92.1101V93.1101H116.665V92.1101H115.665ZM115.665 1.8101H116.665V0.810101H115.665V1.8101ZM99.8522 0.867205L76.1162 9.2522L76.7824 11.138L100.518 2.753L99.8522 0.867205ZM75.4884 10.472L79.8744 25.694L81.7962 25.1402L77.4102 9.91823L75.4884 10.472ZM81.1052 26.38L98.1332 21.607L97.5934 19.6812L80.5654 24.4542L81.1052 26.38ZM96.8633 20.6441V92.1101H98.8633V20.6441H96.8633ZM97.8633 93.1101H115.665V91.1101H97.8633V93.1101ZM116.665 92.1101V1.8101H114.665V92.1101H116.665ZM115.665 0.810101H100.185V2.8101H115.665V0.810101Z" fill="#1F4439"/>
</svg>
